<?xml version="1.0" encoding="iso-8859-1"?>
<!-- Generator: Adobe Illustrator 18.0.0, SVG Export Plug-In . SVG Version: 6.00 Build 0)  -->
<!DOCTYPE svg PUBLIC "-//W3C//DTD SVG 1.1//EN" "http://www.w3.org/Graphics/SVG/1.1/DTD/svg11.dtd">
<svg version="1.1" id="Capa_1" xmlns="http://www.w3.org/2000/svg" xmlns:xlink="http://www.w3.org/1999/xlink" x="0px" y="0px"
	 viewBox="0 0 330.893 330.893" style="enable-background:new 0 0 330.893 330.893;" xml:space="preserve">
<g>
	<g>
		<path style="fill:#FDBD1D;" d="M22.387,192.103l1.591,7.716h-4.074c-0.45,6-0.737,8-0.907,11h7.179L22.387,192.103z"/>
		<path style="fill:none;" d="M22.387,193.242H12.086c-0.803,6.64-1.102,12.929-1.1,18.613h15.19L22.387,193.242z"/>
		<g>
			<g>
				<path style="fill:#58D2D4;" d="M183.42,223.679c0.281,0.243,0.587,0.497,0.882,0.747
					C184.008,224.176,183.701,223.921,183.42,223.679z"/>
				<path style="fill:#58D2D4;" d="M186.986,226.643c-0.415-0.335-0.829-0.669-1.225-0.995
					C186.157,225.975,186.569,226.307,186.986,226.643z"/>
				<path style="fill:#58D2D4;" d="M259.014,198.775c-4.372,3.078-14.255,8.899-35.569,17.756
					c-5.904,2.625-12.53,5.343-19.907,8.064c-3.482,1.284-7.21,2.593-11.175,3.911c-0.678,0.245-1.359,0.482-2.045,0.73
					c13.475,10.215,34.823,22.583,59.314,22.583c0.003,0,0.008,0,0.011,0c22.598,0,43.928-10.502,63.546-31.228L259.014,198.775z"/>
				<path style="fill:#58D2D4;" d="M189.799,228.853c-0.484-0.37-0.953-0.735-1.415-1.098
					C188.847,228.118,189.314,228.481,189.799,228.853z"/>
			</g>
			<g>
				<path style="fill:#58D2D4;" d="M32.875,221.819H11.358c0.005,0,0.011,0,0.016,0h7.125c0.018,3,0.87,11.025,1.046,12.787
					c63.262-1.194,111.564-9.956,145.704-19.725c-3.58-48.579-21.682-78.019-36.821-94.642
					c-22.042-16.711-34.996-14.236-34.996-14.236c-36.791,14.04-60.281,39.816-69.924,74.816h3.35c2.602,0,4.844,2.57,5.363,5.12
					l6.017,29.928c0.327,1.61-0.085,2.975-1.125,4.247C36.074,221.387,34.518,221.819,32.875,221.819z"/>
				<path style="fill:#58D2D4;" d="M11.476,224.394c0.259,3.765,0.586,6.385,0.902,8.533
					C12.062,230.593,11.735,227.71,11.476,224.394z"/>
			</g>
			<g>
				<path style="fill:#FDA6B6;" d="M117.399,95.836c-0.506-0.366-0.996-0.704-1.49-1.049
					C116.403,95.132,116.893,95.471,117.399,95.836z"/>
				<path style="fill:#FDA6B6;" d="M238.9,169.034c-2.873,1.271-7.156,1.785-12.496,1.785c-0.063,0-0.124,0-0.186,0
					c-8.696,0-21.918-3.005-35.531-20.705c-13.602-17.685-15.307-30.85-13.997-39.605c-17.883-8.502-35.946-11.034-51.715-11.034
					c-0.853,0-1.686,0.113-2.51,0.128c-0.318-0.256-0.626-0.438-0.941-0.686c4.281,3.384,8.847,7.473,13.469,12.373
					c16.473,17.459,36.634,48.945,40.986,100.652c1.701-0.538,3.372-1.07,4.988-1.606c11.666-4.214,21.309-7.948,29.268-11.223
					c17.558-7.75,28.562-15.09,33.582-18.55C242.235,176.694,240.592,172.587,238.9,169.034z"/>
				<path style="fill:#FDA6B6;" d="M114.898,94.078c-0.825-0.563-1.632-1.1-2.416-1.605
					C113.266,92.979,114.073,93.515,114.898,94.078z"/>
				<path style="fill:#FDA6B6;" d="M178.031,105.453c0.003-0.007,0.005-0.013,0.007-0.019
					C178.036,105.44,178.034,105.446,178.031,105.453z"/>
				<path style="fill:#FDA6B6;" d="M120.002,97.774c-0.408-0.312-0.804-0.602-1.205-0.901
					C119.198,97.172,119.595,97.463,120.002,97.774z"/>
			</g>
			<g>
				<path style="fill:#FDBD1D;" d="M217.916,136.091c0.243,0.299,0.482,0.614,0.724,0.917
					C218.398,136.704,218.159,136.39,217.916,136.091z"/>
				<path style="fill:#FDBD1D;" d="M220.572,139.467c0.348,0.456,0.692,0.93,1.038,1.394
					C221.264,140.397,220.921,139.923,220.572,139.467z"/>
				<path style="fill:#FDBD1D;" d="M214.395,131.945c0.28,0.318,0.563,0.625,0.841,0.948
					C214.958,132.57,214.675,132.263,214.395,131.945z"/>
				<path style="fill:#FDBD1D;" d="M211.41,128.666c0.361,0.383,0.723,0.759,1.082,1.149
					C212.133,129.425,211.77,129.05,211.41,128.666z"/>
				<path style="fill:#FDBD1D;" d="M223.188,143.004c0.373,0.52,0.743,1.055,1.114,1.586
					C223.931,144.059,223.562,143.524,223.188,143.004z"/>
				<path style="fill:#FDBD1D;" d="M228.285,150.567c0.38,0.6,0.758,1.207,1.134,1.818
					C229.043,151.774,228.665,151.167,228.285,150.567z"/>
				<path style="fill:#FDBD1D;" d="M225.759,146.702c0.381,0.564,0.758,1.14,1.136,1.715
					C226.517,147.842,226.14,147.266,225.759,146.702z"/>
				<path style="fill:#FDBD1D;" d="M209.712,126.886c-0.39-0.398-0.781-0.784-1.172-1.173
					C208.931,126.103,209.322,126.489,209.712,126.886z"/>
				<path style="fill:#FDBD1D;" d="M194.095,113.4c0.373,0.269,0.745,0.551,1.118,0.826
					C194.84,113.951,194.469,113.67,194.095,113.4z"/>
				<path style="fill:#FDBD1D;" d="M191.154,111.346c0.31,0.209,0.618,0.431,0.928,0.644
					C191.772,111.776,191.464,111.555,191.154,111.346z"/>
				<path style="fill:#FDBD1D;" d="M229.999,153.343c-10.501-14.28-22.08-24.704-33.986-32.201
					c-1.351,4.065-2.26,12.112,4.166,24.148c-0.272-0.34-0.544-0.673-0.817-1.029c15.619,20.307,29.083,18.022,34.548,15.828
					C232.633,157.757,231.324,155.525,229.999,153.343z"/>
				<path style="fill:#FDBD1D;" d="M205.685,122.957c0.402,0.376,0.804,0.752,1.205,1.136
					C206.49,123.709,206.088,123.333,205.685,122.957z"/>
				<path style="fill:#FDBD1D;" d="M202.813,120.354c0.409,0.359,0.817,0.72,1.223,1.087
					C203.629,121.074,203.222,120.713,202.813,120.354z"/>
				<path style="fill:#FDBD1D;" d="M197.02,115.584c0.397,0.306,0.793,0.622,1.189,0.935
					C197.813,116.205,197.417,115.89,197.02,115.584z"/>
				<path style="fill:#FDBD1D;" d="M199.927,117.901c0.406,0.334,0.812,0.676,1.217,1.018
					C200.739,118.577,200.334,118.235,199.927,117.901z"/>
			</g>
			<path style="fill:none;" d="M178.798,129.771c0.075,0.218,0.155,0.44,0.233,0.661
				C178.953,130.211,178.872,129.989,178.798,129.771z"/>
			<path style="fill:none;" d="M178.231,128.019c0.057,0.188,0.121,0.38,0.181,0.571C178.352,128.4,178.288,128.207,178.231,128.019
				z"/>
			<path style="fill:none;" d="M177.342,124.661c0.014,0.063,0.031,0.128,0.046,0.191
				C177.373,124.79,177.355,124.724,177.342,124.661z"/>
			<path style="fill:none;" d="M179.45,131.571c0.092,0.241,0.189,0.484,0.286,0.728C179.64,132.055,179.543,131.812,179.45,131.571
				z"/>
			<path style="fill:none;" d="M180.196,133.422c0.108,0.257,0.221,0.516,0.334,0.776
				C180.416,133.938,180.304,133.679,180.196,133.422z"/>
			<path style="fill:none;" d="M96.18,84.025l2.888-0.942c-1.6-2.477-4.351-4.024-7.39-4.024c-0.925,0-1.848,0.148-2.741,0.44
				c-2.247,0.731-4.068,2.289-5.134,4.389c-0.709,1.396-1.027,2.92-0.946,4.444c3.608-1.353,7.371-2.619,11.298-3.787
				C94.277,84.51,94.975,84.311,96.18,84.025z"/>
			<path style="fill:none;" d="M95.676,95.701l-10.062,3.283c-38.272,14.606-62.16,41.436-71.03,79.901
				c-0.263,1.142-0.504,2.278-0.734,3.411h13.008c2.602,0,4.844,1.831,5.363,4.381l6.017,29.559c0.327,1.61-0.085,3.282-1.125,4.554
				c-1.039,1.274-2.595,2.011-4.238,2.011H11.358c0.36,5.308,0.916,9.617,1.372,12.546c66.646-0.645,117.155-10.037,152.519-20.157
				c-3.656-49.613-22.467-79.496-37.791-95.908C113.786,104.637,100.422,97.822,95.676,95.701z"/>
			<path style="fill:none;" d="M233.91,160.089c-13.265-24.205-29.176-40.26-45.716-50.675c-1.718,5.169-2.73,16.777,11.168,34.847
				C214.981,164.568,228.446,162.283,233.91,160.089z"/>
			<path style="fill:none;" d="M181.036,135.322c0.125,0.272,0.253,0.544,0.384,0.818
				C181.289,135.865,181.161,135.593,181.036,135.322z"/>
			<path style="fill:none;" d="M177.747,126.317c0.038,0.144,0.082,0.29,0.121,0.435
				C177.829,126.607,177.785,126.46,177.747,126.317z"/>
			<path style="fill:none;" d="M243.817,180.975c-0.642-1.57-1.296-3.104-1.958-4.621c-4.133,1.895-10.456,3.923-15.456,3.923
				c-0.063,0-0.124,0-0.186,0c-8.696-0.05-21.918-3.825-35.532-21.525c-13.031-16.942-15.142-30.113-14.145-38.887
				c0,0.003,0.001,0.006,0.001,0.008c-0.757-7.085,0.609-12.432,2.043-15.866c-18.498-9.231-37.284-12.145-53.61-12.145
				c-4.618,0-8.826,0.25-12.493,0.611c6.479,4.179,14.422,10.269,22.511,18.844c16.473,17.459,36.634,48.932,40.986,100.639
				c1.7-0.537,3.372-1.076,4.988-1.613c11.666-4.214,21.309-7.951,29.268-11.227C227.793,191.367,238.798,184.436,243.817,180.975z"
				/>
			<path style="fill:none;" d="M186.885,145.634c0.189,0.284,0.372,0.565,0.568,0.851
				C187.257,146.199,187.074,145.918,186.885,145.634z"/>
			<path style="fill:none;" d="M188.489,147.956c0.174,0.244,0.34,0.485,0.518,0.731
				C188.829,148.442,188.663,148.201,188.489,147.956z"/>
			<path style="fill:none;" d="M215.626,208.712c-5.904,2.625-12.53,5.343-19.907,8.064c-3.483,1.284-7.211,2.593-11.175,3.911
				c-1.061,0.382-2.121,0.765-3.213,1.156c11.32,10.179,37.324,29.985,68.3,29.989c0.003,0,0.008,0,0.011,0
				c23.81,0,46.215-11.644,66.689-34.636l-65.136-26.241C246.823,194.035,236.94,199.856,215.626,208.712z"/>
			<path style="fill:none;" d="M185.465,143.441c0.185,0.296,0.366,0.589,0.557,0.889
				C185.83,144.03,185.649,143.737,185.465,143.441z"/>
			<path style="fill:none;" d="M184.186,141.329c0.172,0.295,0.341,0.588,0.52,0.886
				C184.527,141.917,184.357,141.624,184.186,141.329z"/>
			<path style="fill:none;" d="M181.977,137.272c0.142,0.281,0.285,0.563,0.433,0.849
				C182.262,137.835,182.119,137.553,181.977,137.272z"/>
			<path style="fill:none;" d="M183.025,139.274c0.157,0.29,0.314,0.579,0.478,0.872
				C183.34,139.852,183.182,139.564,183.025,139.274z"/>
			<path style="fill:#B74B00;" d="M330.719,213.59c-0.435-1.683-1.642-3.06-3.255-3.709l-71.888-28.96
				c-0.001-0.001-0.001-0.004-0.002-0.008c-33.763-87.006-96.317-99.996-130.599-99.996c-5.432,0-10.33,0.314-14.546,0.759
				c-2.681-8.115-10.204-13.562-18.751-13.562c-2.084,0-4.151,0.33-6.138,0.98c-5.022,1.635-9.104,5.128-11.496,9.836
				c-2.177,4.283-2.71,9.104-1.554,13.717c-45.074,20.746-62.309,56.256-68.663,84.176c-7.816,34.342-1.285,63.989-1.003,65.235
				c0.564,2.495,2.781,4.265,5.338,4.265c0.006,0,0.013,0,0.02,0c70.596-0.252,123.914-10.178,161.008-20.88
				c8.241,8.337,39.823,37.33,80.442,37.336c0.005,0,0.007,0,0.012,0c29.153,0,56.079-14.93,80.023-44.368
				C330.762,217.062,331.153,215.273,330.719,213.59z M188.195,109.414c16.539,10.414,32.451,26.47,45.716,50.675
				c-5.464,2.195-18.929,4.479-34.548-15.828C185.465,126.191,186.477,114.583,188.195,109.414z M82.857,88.332
				c-0.081-1.524,0.237-3.048,0.946-4.444c1.066-2.1,2.887-3.657,5.134-4.389c0.893-0.292,1.816-0.44,2.741-0.44
				c3.04,0,5.791,1.547,7.39,4.024l-2.888,0.942 M12.086,193.242h10.301l3.789,18.613h-15.19
				C10.984,206.171,11.282,199.882,12.086,193.242z M12.73,235.347c-0.456-2.929-1.012-7.238-1.372-12.546h21.517
				c1.643,0,3.199-0.737,4.238-2.011c1.039-1.272,1.452-2.944,1.125-4.554l-6.017-29.559c-0.519-2.55-2.761-4.381-5.363-4.381H13.85
				c0.23-1.133,0.47-2.269,0.734-3.411c8.87-38.465,32.758-65.294,71.03-79.901l10.062-3.283c4.745,2.121,18.109,8.936,31.782,23.58
				c15.324,16.413,34.135,46.295,37.791,95.908C129.885,225.31,79.376,234.702,12.73,235.347z M175.979,211.956
				c-4.352-51.707-24.513-83.18-40.986-100.639c-8.089-8.574-16.033-14.664-22.511-18.844c3.666-0.36,7.875-0.611,12.493-0.611
				c16.326,0,35.113,2.913,53.61,12.145c-1.434,3.434-2.8,8.78-2.043,15.866c0.163,1.518,0.422,3.114,0.8,4.789
				c0.014,0.063,0.031,0.128,0.046,0.191c0.111,0.483,0.229,0.97,0.36,1.465c0.038,0.144,0.082,0.29,0.121,0.435
				c0.115,0.418,0.233,0.84,0.363,1.267c0.057,0.188,0.121,0.38,0.181,0.571c0.123,0.391,0.249,0.783,0.386,1.18
				c0.075,0.218,0.155,0.44,0.233,0.661c0.135,0.377,0.273,0.756,0.419,1.139c0.092,0.241,0.189,0.484,0.286,0.728
				c0.147,0.371,0.299,0.745,0.459,1.122c0.108,0.257,0.221,0.516,0.334,0.776c0.163,0.373,0.331,0.747,0.506,1.124
				c0.125,0.272,0.253,0.544,0.384,0.818c0.18,0.374,0.367,0.751,0.557,1.132c0.142,0.281,0.285,0.563,0.433,0.849
				c0.198,0.382,0.405,0.767,0.615,1.153c0.157,0.29,0.314,0.579,0.478,0.872c0.22,0.391,0.451,0.788,0.683,1.183
				c0.172,0.295,0.341,0.588,0.52,0.886c0.244,0.405,0.502,0.815,0.759,1.226c0.185,0.296,0.366,0.589,0.557,0.889
				c0.277,0.431,0.57,0.867,0.863,1.304c0.189,0.284,0.372,0.565,0.568,0.851c0.333,0.486,0.685,0.979,1.036,1.472
				c0.174,0.244,0.34,0.485,0.518,0.731c0.539,0.742,1.097,1.489,1.679,2.246c13.613,17.7,26.836,21.475,35.532,21.525
				c0.062,0,0.123,0,0.186,0c5.341,0,9.623-1.335,12.496-2.605c1.006,2.112,1.991,4.282,2.959,6.501
				c0.661,1.516,1.316,3.051,1.958,4.621c-5.019,3.46-16.024,10.391-33.582,18.141c-7.959,3.275-17.601,7.012-29.268,11.227
				C179.351,210.879,177.68,211.418,175.979,211.956z M249.643,251.833c-0.003,0-0.008,0-0.011,0
				c-30.977-0.005-56.981-19.81-68.3-29.989c1.092-0.391,2.152-0.774,3.213-1.156c3.964-1.318,7.692-2.627,11.175-3.911
				c7.377-2.721,14.003-5.439,19.907-8.064c21.314-8.857,31.197-14.678,35.569-17.756l65.136,26.241
				C295.858,240.189,273.452,251.833,249.643,251.833z"/>
		</g>
	</g>
</g>
<g>
</g>
<g>
</g>
<g>
</g>
<g>
</g>
<g>
</g>
<g>
</g>
<g>
</g>
<g>
</g>
<g>
</g>
<g>
</g>
<g>
</g>
<g>
</g>
<g>
</g>
<g>
</g>
<g>
</g>
</svg>
