<svg id="Layer_2" height="512" viewBox="0 0 128 128" width="512" xmlns="http://www.w3.org/2000/svg" data-name="Layer 2"><path d="m114.667 27 11.583 77.583-53.5 8.75-8.75-36.516-8.75 36.516-53.5-8.75 11.583-77.583z" fill="#4695bc"/><path d="m13.333 14.667h101.333v12.333h-101.333z" fill="#515a5e"/><g fill="#0e708e"><path d="m64 27h11.167a0 0 0 0 1 0 0v27.167a11.167 11.167 0 0 1 -11.167 11.166 0 0 0 0 1 0 0v-38.333a0 0 0 0 1 0 0z"/><path d="m98.5 27 2.613 15.175a22.378 22.378 0 0 0 13.853 17.025l4.789 1.886-5.088-34.086z"/><path d="m29.5 27-2.613 15.175a22.378 22.378 0 0 1 -13.853 17.025l-4.789 1.883 5.088-34.083z"/></g><path d="m42.29 14.667h43.419v12.333h-43.419z" fill="#343c3f"/><path d="m5.437 79.881a1.783 1.783 0 0 0 .263.019 1.75 1.75 0 0 0 1.729-1.491l.126-.843a1.75 1.75 0 0 0 -3.462-.517l-.126.843a1.751 1.751 0 0 0 1.47 1.989z"/><path d="m127.981 104.325-6.495-43.5-5.069-33.955v-12.2a1.75 1.75 0 0 0 -1.75-1.75h-101.334a1.75 1.75 0 0 0 -1.75 1.75v12.2l-5.069 33.954-1.176 7.876a1.75 1.75 0 0 0 3.462.517l1.026-6.876 3.849-1.516a24.262 24.262 0 0 0 14.936-18.353l2.363-13.722h31.276v47.861l-6.185 25.812-50.976-8.355 1.092-7.31a1.75 1.75 0 1 0 -3.462-.516l-2.7 18.083a1.751 1.751 0 0 0 1.449 1.986l53.5 8.75a1.749 1.749 0 0 0 1.984-1.32l7.048-29.414 7.048 29.414a1.749 1.749 0 0 0 1.7 1.342 1.817 1.817 0 0 0 .283-.022l53.5-8.75a1.751 1.751 0 0 0 1.45-1.986zm-10.4-45.981-1.97-.776a20.742 20.742 0 0 1 -12.769-15.69l-2.265-13.128h12.581zm-4.66-33.094h-25.462v-8.833h25.458zm-97.838-8.833h25.458v8.833h-25.458zm10.079 25.461a20.742 20.742 0 0 1 -12.769 15.69l-1.97.776 4.419-29.594h12.581zm18.879-25.461h39.918v8.833h-39.918zm29.376 12.333v12.125a1.75 1.75 0 0 0 3.5 0v-12.125h20.109l2.363 13.722a24.262 24.262 0 0 0 14.936 18.353l3.848 1.516 4.737 31.727-50.975 8.355-6.185-25.812v-9.66a12.927 12.927 0 0 0 11.167-12.784 1.75 1.75 0 0 0 -3.5 0 9.432 9.432 0 0 1 -7.667 9.253v-34.67zm-19.49 82.594-50.191-8.209.837-5.605 50.674 8.306zm20.146 0-1.32-5.508 50.674-8.306.837 5.605z"/></svg>