<svg id="Capa_1" enable-background="new 0 0 511.915 511.915" height="512" viewBox="0 0 511.915 511.915" width="512" xmlns="http://www.w3.org/2000/svg"><g><path d="m437.992 249.607v-160.732c0-9.245-7.495-16.739-16.739-16.739h-131.908c-9.245 0-16.739 7.494-16.739 16.739v189.836c0 29.543 11.736 57.876 32.626 78.766l58.06 58.06c32.294 32.294 84.652 32.294 116.946 0 32.294-32.294 32.294-84.652 0-116.945l-37.48-37.48c-3.052-3.051-4.766-7.19-4.766-11.505z" fill="#f6ee86"/><path d="m455.855 432.411c-134.527-47.956-136.848-243.175-136.725-360.275h-29.785c-9.245 0-16.739 7.495-16.739 16.739v189.836c0 29.543 11.736 57.876 32.626 78.766l58.06 58.06c25.03 25.031 62.111 30.646 92.563 16.874z" fill="#eed076"/><path d="m360.229 412.474c7.228-25.27 22.12-50.884 44.091-72.855s47.585-36.863 72.855-44.091l-34.417-34.417c-3.051-3.051-4.766-7.19-4.766-11.505v-104.833l-16.363-16.363c-7.464-7.464-19.566-7.464-27.03 0l-25.785 25.785c-7.464 7.464-19.566 7.464-27.03 0l-25.785-25.785c-7.464-7.464-19.566-7.464-27.03 0l-16.363 16.363v133.939c0 29.543 11.736 57.876 32.626 78.766z" fill="#a2ddfd"/><path d="m319.754 132.166-3.756-3.756c-7.464-7.464-19.566-7.464-27.03 0l-16.363 16.363v133.939c0 29.543 11.736 57.876 32.626 78.766l54.997 54.997c3.815-13.337 9.786-26.765 17.784-39.708-45.637-63.757-55.976-159.728-58.258-240.601z" fill="#7acdf9"/><path d="m73.923 249.607v-160.732c0-9.245 7.494-16.739 16.739-16.739h131.908c9.245 0 16.739 7.494 16.739 16.739v189.836c0 29.543-11.736 57.876-32.626 78.766l-58.06 58.06c-32.294 32.294-84.652 32.294-116.946 0-32.293-32.294-32.293-84.652 0-116.945l37.48-37.48c3.052-3.051 4.766-7.19 4.766-11.505z" fill="#f6ee86"/><path d="m148.623 415.537 36.514-36.514c-59.033-51.529-66.856-192.543-67.238-306.888h-27.237c-9.245 0-16.739 7.495-16.739 16.739v160.732c0 4.315-1.714 8.454-4.766 11.505l-37.48 37.479c-32.294 32.294-32.294 84.652 0 116.946 32.294 32.295 84.653 32.295 116.946.001z" fill="#eed076"/><path d="m151.686 412.474c-7.228-25.27-22.12-50.884-44.091-72.855s-47.585-36.863-72.855-44.091l34.417-34.417c3.051-3.051 4.766-7.19 4.766-11.505v-104.833l16.363-16.363c7.464-7.464 19.566-7.464 27.03 0l25.785 25.785c7.464 7.464 19.566 7.464 27.03 0l25.785-25.785c7.464-7.464 19.566-7.464 27.03 0l16.363 16.363v133.939c0 29.543-11.736 57.876-32.626 78.766z" fill="#a2ddfd"/><path d="m107.596 339.62c21.971 21.971 36.863 47.585 44.091 72.855l33.451-33.451c-49.361-43.086-62.921-148.736-66.26-249.053l-1.561-1.561c-7.464-7.464-19.566-7.464-27.03 0l-16.363 16.363v104.834c0 4.315-1.714 8.454-4.766 11.505l-34.417 34.417c25.27 7.228 50.884 22.12 72.855 44.091z" fill="#7acdf9"/><path d="m413.673 265.607c-1.04-3.884-5.033-6.193-8.917-5.147l-12.535 3.359-7.983-4.609v-16.597l7.982-4.608c12.826 3.354 12.755 3.609 14.425 3.609 3.214 0 6.156-2.145 7.028-5.398 1.04-3.884-1.264-7.876-5.148-8.916l-1.536-.412c.934-3.794-1.275-7.633-5.036-8.724l.412-1.536c1.04-3.884-1.264-7.876-5.148-8.916-3.881-1.046-7.876 1.264-8.917 5.147l-3.359 12.536-7.979 4.607-14.382-8.303v-9.214l9.177-9.177c2.843-2.844 2.843-7.453 0-10.297-2.843-2.842-7.453-2.842-10.296 0l-1.124 1.125c-2.82-2.706-7.248-2.711-10.073 0l-1.125-1.125c-2.843-2.842-7.453-2.842-10.296 0-2.843 2.844-2.843 7.453 0 10.297l9.177 9.177v9.214l-14.381 8.303-7.979-4.607-3.359-12.536c-1.04-3.884-5.032-6.194-8.917-5.147-3.884 1.041-6.188 5.033-5.148 8.916l.412 1.536c-3.752 1.088-5.972 4.921-5.036 8.724l-1.536.412c-3.884 1.04-6.189 5.032-5.148 8.916.872 3.253 3.813 5.398 7.028 5.398 1.67 0 1.628-.263 14.425-3.609l7.982 4.608v16.597l-7.983 4.609-12.535-3.359c-3.882-1.044-7.876 1.264-8.917 5.147-1.04 3.884 1.264 7.876 5.148 8.917l1.537.412c-.933 3.792 1.268 7.626 5.038 8.72l-.413 1.541c-1.04 3.884 1.264 7.876 5.148 8.917 3.876 1.042 7.875-1.259 8.917-5.147l3.359-12.537 7.978-4.606 14.382 8.304v9.214l-9.177 9.177c-2.843 2.844-2.843 7.453 0 10.297 2.843 2.842 7.453 2.842 10.296 0l1.125-1.125c2.82 2.706 7.248 2.711 10.073 0 .602.444 2.402 3.257 6.272 3.257 6.428 0 9.748-7.828 5.148-12.429l-9.177-9.177v-9.214l14.382-8.304 7.979 4.606 3.359 12.537c1.043 3.893 5.045 6.188 8.917 5.147 3.884-1.041 6.188-5.033 5.148-8.917l-.413-1.541c3.765-1.092 5.972-4.924 5.038-8.72l1.537-.412c3.88-1.041 6.184-5.033 5.144-8.917zm-43.995-6.394-14.379 8.302-14.379-8.302v-16.603l14.379-8.302 14.379 8.302z" fill="#fff"/><path d="m214.99 265.607c-1.04-3.884-5.032-6.193-8.917-5.147l-12.535 3.359-7.983-4.609v-16.597l7.982-4.608c12.826 3.354 12.755 3.609 14.425 3.609 3.214 0 6.156-2.145 7.028-5.398 1.04-3.884-1.265-7.876-5.148-8.916l-1.536-.412c.934-3.794-1.275-7.632-5.036-8.723l.412-1.536c1.04-3.884-1.264-7.876-5.148-8.916-3.881-1.046-7.876 1.264-8.917 5.147l-3.359 12.536-7.979 4.607-14.381-8.303v-9.214l9.177-9.177c2.843-2.844 2.843-7.453 0-10.297-2.843-2.842-7.453-2.842-10.296 0l-1.125 1.125c-2.82-2.706-7.248-2.711-10.073 0l-1.125-1.125c-2.843-2.842-7.453-2.842-10.296 0-2.843 2.844-2.843 7.453 0 10.297l9.177 9.177v9.214l-14.382 8.303-7.979-4.607-3.359-12.536c-1.04-3.884-5.032-6.194-8.917-5.147-3.884 1.041-6.188 5.033-5.148 8.916l.412 1.535c-3.752 1.089-5.972 4.921-5.036 8.724l-1.536.412c-3.884 1.04-6.189 5.032-5.148 8.916 1.045 3.9 5.051 6.187 8.917 5.148l12.536-3.358 7.982 4.608v16.597l-7.983 4.609-12.535-3.359c-3.882-1.044-7.875 1.264-8.917 5.147-1.04 3.884 1.264 7.876 5.148 8.917l1.537.412c-.933 3.792 1.268 7.626 5.037 8.72l-.413 1.541c-1.04 3.884 1.264 7.876 5.148 8.917 3.876 1.042 7.875-1.259 8.917-5.147l3.359-12.537 7.978-4.606 14.382 8.304v9.214l-9.177 9.177c-2.843 2.844-2.843 7.453 0 10.297 2.843 2.842 7.453 2.842 10.296 0l1.125-1.125c2.82 2.706 7.248 2.711 10.073 0 .602.444 2.403 3.257 6.272 3.257 6.428 0 9.748-7.828 5.148-12.429l-9.177-9.177v-9.214l14.382-8.304 7.978 4.606 3.359 12.537c1.043 3.893 5.045 6.188 8.917 5.147 3.884-1.041 6.188-5.033 5.148-8.917l-.413-1.541c3.765-1.092 5.972-4.924 5.038-8.72l1.537-.412c3.883-1.042 6.188-5.034 5.147-8.918zm-43.995-6.394-14.379 8.302-14.379-8.302v-16.603l14.379-8.302 14.379 8.302z" fill="#fff"/><path d="m485.54 293.288c.348.348-4.464-4.464-37.48-37.48-1.656-1.656-2.568-3.858-2.568-6.201 0-15.648 0-143.167 0-160.732 0-9.313-5.438-17.912-13.855-21.906-3.743-1.775-8.215-.182-9.991 3.56s-.183 8.215 3.56 9.991c3.211 1.524 5.286 4.804 5.286 8.355v37.79l-3.56-3.56c-10.377-10.376-27.26-10.376-37.637 0l-25.785 25.785c-4.528 4.529-11.896 4.527-16.424 0l-25.785-25.785c-10.377-10.374-27.261-10.374-37.637 0l-3.56 3.56v-37.79c0-5.095 4.145-9.239 9.239-9.239h103.05c4.142 0 7.5-3.357 7.5-7.5s-3.358-7.5-7.5-7.5h-103.05c-13.366 0-24.239 10.874-24.239 24.239v189.836c0 31.757 12.367 61.613 34.822 84.069 8.452 8.452 51.701 51.702 58.06 58.06 35.164 35.164 92.385 35.167 127.552 0 35.168-35.166 35.168-92.385.002-127.552zm-128.599 105.293-46.407-46.407c-19.622-19.622-30.429-45.711-30.429-73.462v-130.833l14.166-14.165c4.528-4.529 11.895-4.529 16.424 0l25.785 25.785c10.376 10.374 27.26 10.375 37.637 0l25.785-25.785c4.528-4.529 11.896-4.527 16.424 0l14.166 14.165v101.728c0 6.35 2.473 12.319 6.962 16.809l25.827 25.826c-46.488 17.399-88.325 58.208-106.34 106.339zm117.993 11.653c-29.277 29.279-76.888 29.316-106.217.116 15.42-48.155 58.179-90.914 106.333-106.333 29.198 29.328 29.161 76.94-.116 106.217zm-252.364-345.598h-131.907c-13.366 0-24.239 10.874-24.239 24.239v160.732c0 2.343-.912 4.545-2.569 6.201-.208.208-38.649 38.649-37.479 37.48-35.166 35.167-35.166 92.387 0 127.554 35.247 35.247 92.3 35.252 127.552 0 14.314-14.314 7.955-7.954 21.981-21.981 2.929-2.93 2.929-7.678 0-10.607-2.929-2.928-7.678-2.928-10.606 0l-10.328 10.328c-17.394-46.474-58.192-88.319-106.34-106.339l25.826-25.826c4.491-4.488 6.964-10.458 6.964-16.809v-101.729l14.166-14.165c4.528-4.529 11.895-4.529 16.424 0l25.785 25.785c10.376 10.376 27.26 10.377 37.637 0l25.785-25.785c4.528-4.529 11.896-4.527 16.424 0l14.166 14.165v130.833c0 27.751-10.807 53.84-30.429 73.462l-11.159 11.158c-2.929 2.929-2.929 7.678 0 10.606 2.929 2.93 7.678 2.929 10.606.001l11.159-11.158c22.456-22.456 34.822-52.313 34.822-84.069 0-19.107 0-168.593 0-189.836-.002-13.366-10.875-24.24-24.241-24.24zm-79.372 345.714c-29.286 29.16-76.77 29.332-106.217-.117-29.277-29.277-29.314-76.889-.116-106.216 48.156 15.42 90.913 58.18 106.333 106.333zm88.611-283.684-3.56-3.56c-10.376-10.376-27.26-10.376-37.637 0l-25.785 25.785c-4.528 4.529-11.896 4.527-16.424 0l-25.785-25.785c-10.377-10.374-27.261-10.374-37.637 0l-3.56 3.56v-37.79c0-5.095 4.145-9.239 9.239-9.239h131.91c5.095 0 9.239 4.145 9.239 9.239z"/></g></svg>