<?xml version="1.0" encoding="iso-8859-1"?>
<!-- Generator: Adobe Illustrator 19.0.0, SVG Export Plug-In . SVG Version: 6.00 Build 0)  -->
<svg version="1.1" id="Capa_1" xmlns="http://www.w3.org/2000/svg" xmlns:xlink="http://www.w3.org/1999/xlink" x="0px" y="0px"
	 viewBox="0 0 435.077 435.077" style="enable-background:new 0 0 435.077 435.077;" xml:space="preserve">
<path style="fill:#EAEAEA;" d="M68.684,319.59c99.234-63.572,198.49-64.031,297.725,0V155.921H65.605L68.684,319.59z"/>
<path style="fill:#602F75;" d="M366.409,326.417c-1.29,0-2.579-0.365-3.702-1.091c-95.974-61.93-193.659-61.925-290.34,0.012
	c-2.082,1.333-4.722,1.437-6.902,0.271s-3.56-3.418-3.606-5.891l-3.077-163.669c-0.034-1.833,0.669-3.601,1.952-4.91
	c1.283-1.307,3.04-2.045,4.873-2.045h300.802c3.77,0,6.827,3.057,6.827,6.827V319.59c0,2.499-1.365,4.799-3.56,5.994
	C368.653,326.141,367.53,326.417,366.409,326.417z M72.562,162.748l2.722,144.73c94.688-56.525,190.23-56.586,284.297-0.177V162.748
	H72.562z"/>
<path style="fill:#00E7FF;" d="M57.724,108.221c-13.734-3.91-27.015-13.669-35.83-27.79C6.007,54.98,10.588,24.98,32.127,13.44
	c21.524-11.564,51.854-0.29,67.741,25.161c1.903,3.048,3.524,6.161,4.838,9.289"/>
<path style="fill:#602F75;" d="M57.727,115.05c-0.62,0-1.248-0.085-1.872-0.263c-15.892-4.524-30.38-15.73-39.752-30.74
	C6.417,68.528,3.234,50.724,7.372,35.2c3.256-12.22,10.904-22.084,21.533-27.778c24.586-13.21,59.022-0.847,76.756,27.563
	c2.089,3.347,3.886,6.799,5.342,10.259c1.461,3.476-0.172,7.477-3.649,8.938c-3.475,1.463-7.477-0.172-8.938-3.649
	c-1.172-2.79-2.632-5.589-4.337-8.32c-14-22.427-40.339-32.638-58.72-22.762c-7.375,3.951-12.489,10.61-14.795,19.263
	c-3.168,11.887-0.573,25.772,7.122,38.1c7.6,12.175,19.231,21.229,31.908,24.839c3.627,1.033,5.729,4.809,4.697,8.436
	C63.436,113.092,60.701,115.05,57.727,115.05z"/>
<path style="fill:#00E7FF;" d="M377.35,108.221c13.734-3.91,27.017-13.669,35.831-27.79c15.887-25.452,11.305-55.451-10.233-66.992
	c-21.524-11.564-51.855-0.29-67.743,25.161c-1.903,3.048-3.524,6.161-4.838,9.289"/>
<path style="fill:#602F75;" d="M377.349,115.05c-2.973,0-5.707-1.958-6.562-4.96c-1.033-3.627,1.07-7.404,4.697-8.436
	c12.677-3.61,24.308-12.663,31.91-24.839c7.694-12.326,10.289-26.211,7.12-38.098c-2.307-8.653-7.419-15.314-14.787-19.26
	c-18.386-9.878-44.728,0.333-58.728,22.758c-1.705,2.732-3.164,5.531-4.337,8.32c-1.461,3.475-5.463,5.108-8.94,3.647
	c-3.475-1.461-5.108-5.463-3.647-8.94c1.454-3.459,3.251-6.91,5.342-10.259c17.734-28.409,52.171-40.771,76.764-27.559
	c10.621,5.69,18.268,15.556,21.524,27.776c4.137,15.524,0.956,33.326-8.731,48.845c-9.371,15.012-23.861,26.216-39.752,30.74
	C378.596,114.964,377.966,115.05,377.349,115.05z"/>
<path style="fill:#FFFFFF;" d="M374.9,375.066c-21.815-188.088-81.643-215.805-157.361-215.757
	C141.83,159.261,82,186.977,60.185,375.066l-9.605-3.05V169.518c0-89.482,73.209-162.691,162.693-162.691h8.549
	c89.482,0,162.693,73.225,162.693,162.691v202.498L374.9,375.066z"/>
<path style="fill:#602F75;" d="M374.9,381.892c-1.3,0-2.591-0.372-3.709-1.094c-1.712-1.108-2.838-2.92-3.074-4.946
	c-22.453-193.597-86.624-209.804-150.576-209.717c-63.932-0.02-128.123,16.119-150.576,209.717c-0.236,2.026-1.362,3.84-3.075,4.946
	c-1.712,1.108-3.83,1.391-5.772,0.775l-9.605-3.05c-2.835-0.899-4.762-3.533-4.762-6.506V169.518C43.752,76.046,119.797,0,213.271,0
	h8.549c93.474,0,169.52,76.046,169.52,169.518v202.498c0,2.975-1.927,5.608-4.763,6.508l-9.614,3.05
	C376.289,381.786,375.592,381.892,374.9,381.892z M217.772,152.482c33.869,0,72.654,4.746,103.755,39.61
	c26.658,29.884,45.119,79.853,56.16,152.265V169.518c0-85.944-69.92-155.865-155.866-155.865h-8.549
	c-85.944,0-155.866,69.92-155.866,155.865v174.647c24.013-158.624,79.466-191.683,159.949-191.683
	C217.494,152.482,217.632,152.482,217.772,152.482z"/>
<g>
	<path style="fill:#EA3457;" d="M51.145,373.663c15.073,0,27.29,12.227,27.29,27.298c0,15.073-12.218,27.291-27.29,27.291
		s-27.29-12.218-27.29-27.291C23.854,385.889,36.072,373.663,51.145,373.663L51.145,373.663z"/>
	<path style="fill:#EA3457;" d="M51.145,435.077c-18.813,0-34.116-15.305-34.116-34.116c0-18.816,15.305-34.125,34.116-34.125
		c18.813,0,34.116,15.309,34.116,34.125C85.261,419.772,69.956,435.077,51.145,435.077z M51.145,380.489
		c-11.284,0-20.463,9.184-20.463,20.471c0,11.284,9.18,20.463,20.463,20.463s20.463-9.18,20.463-20.463
		C71.608,389.673,62.428,380.489,51.145,380.489z"/>
	<path style="fill:#EA3457;" d="M384.496,373.663c15.072,0,27.291,12.227,27.291,27.298c0,15.073-12.22,27.291-27.291,27.291
		s-27.291-12.218-27.291-27.291C357.207,385.889,369.425,373.663,384.496,373.663L384.496,373.663z"/>
	<path style="fill:#EA3457;" d="M384.496,435.077c-18.813,0-34.116-15.305-34.116-34.116c0-18.816,15.305-34.125,34.116-34.125
		c18.813,0,34.118,15.309,34.118,34.125C418.614,419.772,403.309,435.077,384.496,435.077z M384.496,380.489
		c-11.284,0-20.463,9.184-20.463,20.471c0,11.284,9.18,20.463,20.463,20.463c11.284,0,20.465-9.18,20.465-20.463
		C404.961,389.673,395.781,380.489,384.496,380.489z"/>
</g>
<rect x="210.711" y="7.823" style="fill:#602F75;" width="13.653" height="98.418"/>
<g>
</g>
<g>
</g>
<g>
</g>
<g>
</g>
<g>
</g>
<g>
</g>
<g>
</g>
<g>
</g>
<g>
</g>
<g>
</g>
<g>
</g>
<g>
</g>
<g>
</g>
<g>
</g>
<g>
</g>
</svg>
