<?xml version="1.0" encoding="iso-8859-1"?>
<!-- Generator: Adobe Illustrator 19.0.0, SVG Export Plug-In . SVG Version: 6.00 Build 0)  -->
<svg version="1.1" id="Capa_1" xmlns="http://www.w3.org/2000/svg" xmlns:xlink="http://www.w3.org/1999/xlink" x="0px" y="0px"
	 viewBox="0 0 512 512" style="enable-background:new 0 0 512 512;" xml:space="preserve">
<path style="fill:#6E1414;" d="M191.485,263.556l-32.681,142.231h32.681c17.974,0,32.681-14.706,32.681-32.681V263.556H191.485z"/>
<g>
	<path style="fill:#992A2A;" d="M191.485,373.106V263.556H49.868v109.551c0,17.974,14.807,32.681,32.781,32.681h76.155
		C176.778,405.787,191.485,391.081,191.485,373.106z"/>
	<path style="fill:#992A2A;" d="M140.463,8.17L163.1,319.546h11.133c35.949,0,65.362-29.413,65.362-65.362V107.302
		C239.595,52.553,195.213,8.17,140.463,8.17z"/>
</g>
<path style="fill:#DF3333;" d="M206.914,254.184V107.302c0-54.749-29.752-99.132-66.451-99.132
	c-54.749,0-99.101,44.326-99.101,99.075v93.14l98.621,119.16h23.118C187.198,319.546,206.914,290.133,206.914,254.184z"/>
<path style="fill:#E55C5C;" d="M74.621,200.385V140.47c0-18.349-14.91-33.226-33.259-33.226c-18.35,0-33.192,14.875-33.192,33.226
	v91.927c0,48.131,39.018,87.149,87.149,87.149h44.664v-52.946C140.129,230.178,111.043,200.532,74.621,200.385z"/>
<path style="fill:#6E1414;" d="M429.451,263.556l-32.681,142.231h32.681c17.974,0,32.681-14.706,32.681-32.681V263.556H429.451z"/>
<g>
	<path style="fill:#992A2A;" d="M429.451,373.106V263.556H287.834v109.551c0,17.974,14.807,32.681,32.781,32.681h76.155
		C414.745,405.787,429.451,391.081,429.451,373.106z"/>
	<path style="fill:#992A2A;" d="M371.538,8.17l65.841,232.404l33.258-40.187v-93.14C470.637,52.496,426.289,8.17,371.538,8.17z"/>
</g>
<g>
	<path style="fill:#DF3333;" d="M371.538,8.17c36.69,0,65.841,44.326,65.841,99.077v133.327l-65.362,78.968h-34.25
		c-35.949,0-65.362-29.413-65.362-65.362V107.302C272.406,52.551,316.786,8.17,371.538,8.17z"/>
	<path style="fill:#DF3333;" d="M470.638,107.245c-5.941,0-11.518,1.568-16.349,4.3v88.841L384,319.546h32.681
		c48.131,0,87.149-39.018,87.149-87.149V140.47C503.83,122.121,488.988,107.245,470.638,107.245z"/>
</g>
<path style="fill:#E55C5C;" d="M471.149,232.397V140.47c0-12.408-6.791-23.22-16.859-28.926
	c-10.089,5.706-16.911,16.518-16.911,28.926v59.915c-36.422,0.147-65.508,29.792-65.362,66.214v52.946H384
	C432.131,319.546,471.149,280.528,471.149,232.397z"/>
<path d="M478.548,99.843C474.732,44.149,428.198,0,371.537,0C312.37,0,264.234,48.136,264.234,107.302v146.882
	c0,16.936,5.771,32.543,15.43,44.987v73.935c0,19.75,14.125,36.269,32.826,40.041l0.157,25.866
	c0,31.235-25.412,56.647-56.647,56.647c-31.124,0-56.445-25.412-56.445-56.647v-25.873c18.679-3.788,32.782-20.297,32.782-40.033
	v-73.935c9.658-12.446,15.43-28.051,15.43-44.987V107.302C247.767,48.136,199.631,0,140.464,0C83.804,0,37.269,44.149,33.453,99.843
	C14.417,103.548,0,120.353,0,140.47v91.927c0,32.691,16.544,61.587,41.697,78.765v61.944c0,22.526,18.325,40.851,40.851,40.851
	h100.665v25.055c0,40.245,32.651,72.987,72.786,72.987c40.245,0,72.987-32.742,72.987-73.036l-0.15-25.006h100.616
	c22.526,0,40.851-18.325,40.851-40.851v-61.944C495.456,293.984,512,265.087,512,232.397V140.47
	C512,120.353,497.583,103.548,478.548,99.843z M58.038,373.106V320.12c11.457,4.888,24.059,7.596,37.281,7.596h4.477v45.39
	c0,4.512,3.658,8.17,8.17,8.17c4.512,0,8.17-3.658,8.17-8.17v-53.561c0-4.512-3.658-8.17-8.17-8.17H95.319
	c-43.549,0-78.979-35.429-78.979-78.979V140.47c0-13.815,11.225-25.055,25.022-25.055c13.835,0,25.089,11.239,25.089,25.055v59.915
	c0,4.499,3.637,8.152,8.138,8.17c15.402,0.062,29.823,6.123,40.607,17.068c10.778,10.939,16.679,25.48,16.617,40.943
	c-0.019,4.512,3.625,8.185,8.138,8.203c4.531,0,8.185-3.636,8.203-8.138c0.154-38.108-28.5-69.708-65.362-73.937v-52.225
	c0-19.919-14.154-36.594-32.941-40.518c3.732-46.724,42.931-83.611,90.613-83.611c50.156,0,90.962,40.805,90.962,90.962v146.882
	c0,13.723-4.862,26.329-12.948,36.195c-0.358,0.348-0.682,0.729-0.972,1.136c-10.496,12.149-25.995,19.86-43.272,19.86h-34.251
	c-4.512,0-8.17,3.658-8.17,8.17c0,4.512,3.658,8.17,8.17,8.17h17.913v45.39c0,4.512,3.658,8.17,8.17,8.17s8.17-3.658,8.17-8.17
	v-45.39c15.502-0.001,29.889-4.835,41.759-13.058v58.449c0,13.516-11.041,24.511-24.612,24.511H82.549
	C69.034,397.617,58.038,386.622,58.038,373.106z M495.66,232.397c0,43.549-35.429,78.979-78.979,78.979h-12.647
	c-4.512,0-8.17,3.658-8.17,8.17v53.561c0,4.512,3.658,8.17,8.17,8.17c4.512,0,8.17-3.658,8.17-8.17v-45.39h4.477
	c13.223,0,25.823-2.708,37.281-7.596v52.987c0,13.516-10.995,24.511-24.511,24.511H320.617c-13.571,0-24.612-10.995-24.612-24.511
	v-58.449c11.871,8.223,26.258,13.057,41.759,13.058v45.39c0,4.512,3.658,8.17,8.17,8.17c4.512,0,8.17-3.658,8.17-8.17v-45.39h17.913
	c4.512,0,8.17-3.658,8.17-8.17c0-4.512-3.658-8.17-8.17-8.17h-34.251c-17.276,0-32.777-7.712-43.272-19.86
	c-0.29-0.409-0.613-0.789-0.972-1.136c-8.086-9.866-12.948-22.472-12.948-36.195V107.302c0-50.156,40.805-90.962,90.962-90.962
	c47.681,0,86.881,36.887,90.613,83.612c-18.787,3.924-32.941,20.599-32.941,40.518v52.225
	c-36.862,4.229-65.515,35.828-65.362,73.937c0.019,4.501,3.672,8.138,8.17,8.138c4.546-0.019,8.189-3.691,8.17-8.203
	c-0.062-15.463,5.839-30.003,16.617-40.943c10.783-10.945,25.205-17.006,40.607-17.068c4.499-0.019,8.138-3.671,8.138-8.17v-59.915
	c0-13.815,11.255-25.055,25.089-25.055c13.797,0,25.022,11.239,25.022,25.055V232.397z"/>
<g>
</g>
<g>
</g>
<g>
</g>
<g>
</g>
<g>
</g>
<g>
</g>
<g>
</g>
<g>
</g>
<g>
</g>
<g>
</g>
<g>
</g>
<g>
</g>
<g>
</g>
<g>
</g>
<g>
</g>
</svg>
