<svg id="Layer_1" enable-background="new 0 0 495.992 495.992" height="512" viewBox="0 0 495.992 495.992" width="512" xmlns="http://www.w3.org/2000/svg"><path d="m399.937 428.95c8.9 14.21 5.87 32.81-7.08 43.46-14.88 12.23-37 9.35-48.24-6.29-.06-.09-27.11-37.68-43.63-60.69-8.21-11.43-13.61-24.64-15.76-38.55l-33.25-215.23c-.7-4.52-7.21-4.52-7.9-.01l-33.3 215.33c-2.16 13.93-7.57 27.15-15.8 38.6l-43.54 60.55c-11.24 15.64-33.36 18.52-48.24 6.29-12.95-10.65-15.98-29.25-7.08-43.46l20.91-33.35c8.92-14.23 13.66-30.69 13.68-47.48l.3-309.88c.01-12.29 9.97-22.24 22.26-22.24h189.52c12.29 0 22.25 9.95 22.26 22.24l.3 309.88c.02 16.79 4.76 33.25 13.68 47.48z" fill="#ededed"/><path d="m392.857 472.41c-13.74 11.29-33.64 9.7-45.45-2.91 22.989-3.936 35.228-30.276 22.53-50.55l-20.91-33.35c-8.92-14.23-13.66-30.69-13.68-47.48l-.3-309.88c0-4.521-1.36-8.73-3.68-12.24h11.42c12.29 0 22.25 9.95 22.26 22.24l.3 309.88c.02 16.79 4.76 33.25 13.68 47.48l20.91 33.35c8.9 14.21 5.87 32.81-7.08 43.46z" fill="#e3e3e3"/><path d="m364.937 36.1c-1.482-.149 11.481-.1-191.67-.1-12.29 0-22.25 9.95-22.26 22.24l-.3 309.88c-.02 16.79-4.76 33.25-13.68 47.48l-20.91 33.35c-5.62 8.97-6.48 19.69-3.1 29.06-19.782-7.126-28.258-30.925-16.9-49.06l20.91-33.35c8.92-14.23 13.66-30.69 13.68-47.48l.3-309.88c.01-12.29 9.97-22.24 22.26-22.24h189.52c11.57 0 21.07 8.81 22.15 20.1z" fill="#f2f2f2"/><path d="m413.494 420.452-20.909-33.355c-7.336-11.7-11.22-25.184-11.232-38.993l-.304-309.879c-.021-21.078-17.185-38.225-38.262-38.225h-189.52c-21.077 0-38.241 17.147-38.262 38.225l-.303 309.879c-.014 13.81-3.898 27.294-11.233 38.994l-20.912 33.359c-20.447 32.644 2.972 75.535 41.869 75.535 16.231 0 31.03-8.049 40-20.531l43.542-60.553c9.652-13.423 16.089-29.154 18.616-45.491l21.434-138.604 21.399 138.512c2.52 16.315 8.94 32.028 18.567 45.438 15.122 21.062 41.747 58.069 43.639 60.695 16.611 23.112 49.387 27.399 71.392 9.313.002-.001.003-.002.004-.003 19.1-15.707 23.604-43.355 10.475-64.316zm-44.058 43.399c-5.255-.686-9.147-3.343-12.204-7.593-3.303-4.59-27.853-38.708-43.252-60.157-6.707-9.343-11.181-20.291-12.937-31.661l-33.253-215.237c-1.518-9.818-9.83-16.945-19.765-16.946-9.883-.001-18.24 7.075-19.766 16.943l-33.298 215.327c-1.76 11.385-6.246 22.346-12.972 31.7l-43.545 60.556c-2.825 3.931-7.025 6.441-11.827 7.068-14.574 1.898-24.66-14.084-16.944-26.402l20.908-33.354c10.526-16.79 16.101-36.141 16.12-55.959l.303-309.879c.003-3.449 2.813-6.256 6.262-6.256h189.52c3.449 0 6.259 2.807 6.262 6.256l.304 309.878c.019 19.818 5.593 39.169 16.119 55.96l20.906 33.35c7.735 12.348-2.395 28.296-16.941 26.406z"/></svg>